<?xml version="1.0" encoding="iso-8859-1"?>
<!-- Generator: Adobe Illustrator 19.0.0, SVG Export Plug-In . SVG Version: 6.00 Build 0)  -->
<svg xmlns="http://www.w3.org/2000/svg" xmlns:xlink="http://www.w3.org/1999/xlink" version="1.1" id="Layer_1" x="0px" y="0px" viewBox="0 0 512 512" style="enable-background:new 0 0 512 512;" xml:space="preserve" width="512" height="512">
<g>
	<path d="M362,152v45c0,35.764,25.21,65.662,58.762,73.118C414.726,304.224,384.084,332,346,332c-42.531,0-75-34.535-75-75v-16.518   c34.191-6.969,60-37.266,60-73.482v-45h-60V89.237C288.422,83.024,301,66.53,301,47V32h30V0H181v32h30v15   c0,19.53,12.578,36.024,30,42.237V122h-60v45c0,36.216,25.809,66.513,60,73.482V257c0,40.462-32.466,75-75,75   c-38.035,0-68.718-27.731-74.762-61.882C124.79,262.662,150,232.764,150,197v-45H0v45c0,36.616,26.415,67.077,61.166,73.601   c5.612,43.004,38.033,77.774,79.334,88.099c-9.6,15.899-19.501,35.7-19.501,48.3c0,24.901,20.099,45,45,45s45-20.099,45-45   c0-12.599-9.901-32.401-19.501-48.3c19.206-4.801,36.105-15.093,49.501-28.819v72.49c-10.752,15.967-30,47.021-30,64.629   c0,24.814,20.186,45,45,45s45-20.186,45-45c0-17.607-19.248-48.662-30-64.629v-72.49c13.396,13.726,30.295,24.018,49.501,28.819   c-9.6,15.899-19.501,35.7-19.501,48.3c0,24.901,20.099,45,45,45s45-20.099,45-45c0-12.599-9.901-32.401-19.501-48.3   c41.301-10.325,73.722-45.095,79.334-88.099C485.585,264.077,512,233.616,512,197v-45H362z"/>
</g>















</svg>
