<svg height="488pt" viewBox="0 -92 488 488" width="488pt" xmlns="http://www.w3.org/2000/svg"><path d="m480 0c-4.414062.0117188-7.988281 3.585938-8 8v122.199219h-141c-2.105469-.054688-4.140625.742187-5.648438 2.210937-1.507812 1.46875-2.355468 3.484375-2.351562 5.589844v158.5c0 4.417969 3.582031 8 8 8s8-3.582031 8-8v-98.300781h133v98.199219c0 4.421874 3.582031 8 8 8s8-3.578126 8-8v-288.5c-.011719-2.109376-.859375-4.125-2.359375-5.609376-1.5-1.480468-3.53125-2.304687-5.640625-2.289062zm0 0"/><path d="m157 130.199219h-141v-122.199219c0-4.417969-3.582031-8-8-8s-8 3.582031-8 8v288.5c0 4.417969 3.582031 8 8 8s8-3.582031 8-8v-98.300781h133v98.199219c0 4.421874 3.582031 8 8 8s8-3.578126 8-8v-158.5c-.019531-2.085938-.878906-4.082032-2.382812-5.527344-1.503907-1.449219-3.527344-2.230469-5.617188-2.171875zm0 0"/><path d="m140 46.199219h208v36h-208zm0 0"/><path d="m232 98.199219h24v190h-24zm0 0"/></svg>