<?xml version="1.0" encoding="iso-8859-1"?>
<!-- Generator: Adobe Illustrator 19.0.0, SVG Export Plug-In . SVG Version: 6.00 Build 0)  -->
<svg version="1.1" id="Capa_1" xmlns="http://www.w3.org/2000/svg" xmlns:xlink="http://www.w3.org/1999/xlink" x="0px" y="0px"
	 viewBox="0 0 512 512" style="enable-background:new 0 0 512 512;" xml:space="preserve">
<g>
	<g>
		<path d="M496,32c2.946,0,5.333-2.388,5.333-5.333V5.333C501.333,2.388,498.946,0,496,0h-90.667c-0.341,0-0.619,0.16-0.949,0.192
			c-0.644,0.068-1.279,0.196-1.899,0.384c-1.11,0.314-2.159,0.811-3.104,1.472l-0.128,0.096c-0.554,0.339-1.075,0.728-1.557,1.163
			l-84.181,63.104c-0.407,0.265-0.795,0.557-1.163,0.875l-84.512,63.36c-0.245,0.213-0.555,0.352-0.779,0.587l-84.907,63.648
			c-0.117,0.107-0.277,0.181-0.395,0.299l-85.333,63.947l-41.493,31.125c-3.437,2.633-4.864,7.131-3.573,11.264
			c-0.436,0.757-0.675,1.612-0.693,2.485v10.667c0,2.945,2.388,5.333,5.333,5.333c0.857-0.018,1.697-0.249,2.443-0.672
			c0.927,0.358,1.901,0.584,2.891,0.672c2.308,0,4.554-0.749,6.4-2.133l25.6-19.2v128h-32c-5.891,0-10.667,4.776-10.667,10.667v64
			c0,5.891,4.776,10.667,10.667,10.667h469.333c5.891,0,10.667-4.776,10.667-10.667v-320c0-5.891-4.776-10.667-10.667-10.667h-64V32
			H496z M138.667,362.667h-21.333c-5.891,0-10.667,4.776-10.667,10.667v53.333H85.333v-152l53.333-40V362.667z M224,288h-21.333
			c-5.891,0-10.667,4.776-10.667,10.667v64h-21.333v-152l53.333-40V288z M309.333,234.667h-10.667
			c-5.891,0-10.667,4.776-10.667,10.667V288h-32V146.667l53.333-40V234.667z M394.667,170.667H384
			c-5.891,0-10.667,4.776-10.667,10.667v53.333h-32v-152l53.333-40V170.667z"/>
	</g>
</g>
<g>
</g>
<g>
</g>
<g>
</g>
<g>
</g>
<g>
</g>
<g>
</g>
<g>
</g>
<g>
</g>
<g>
</g>
<g>
</g>
<g>
</g>
<g>
</g>
<g>
</g>
<g>
</g>
<g>
</g>
</svg>
